<svg xmlns="http://www.w3.org/2000/svg" viewBox="0 0 360 360" width="360" height="360"><g fill="#e8f1ec" stroke="#e8f1ec" stroke-linecap="round"><circle cx="30" cy="60" r="1.4" stroke="none" opacity="0.8"/><circle cx="90" cy="200" r="1" stroke="none" opacity="0.6"/><circle cx="150" cy="20" r="1.8" stroke="none" opacity="0.7"/><circle cx="210" cy="120" r="1.2" stroke="none" opacity="0.6"/><circle cx="270" cy="300" r="1.6" stroke="none" opacity="0.8"/><circle cx="330" cy="170" r="1" stroke="none" opacity="0.6"/><circle cx="60" cy="330" r="1.2" stroke="none" opacity="0.6"/><circle cx="190" cy="250" r="1" stroke="none" opacity="0.5"/><circle cx="300" cy="40" r="1.2" stroke="none" opacity="0.6"/><circle cx="120" cy="110" r="0.9" stroke="none" opacity="0.5"/><path transform="translate(250 70)" d="M-7 0L7 0M-3.5 -6.06L3.5 6.06M3.5 -6.06L-3.5 6.06" fill="none" stroke-width="1" opacity="0.9"/><path transform="translate(70 150)" d="M-5 0L5 0M-2.5 -4.33L2.5 4.33M2.5 -4.33L-2.5 4.33" fill="none" stroke-width="1" opacity="0.7"/><path transform="translate(180 320)" d="M-6 0L6 0M-3 -5.2L3 5.2M3 -5.2L-3 5.2" fill="none" stroke-width="1" opacity="0.8"/><path transform="translate(320 240)" d="M-4.5 0L4.5 0M-2.25 -3.9L2.25 3.9M2.25 -3.9L-2.25 3.9" fill="none" stroke-width="1" opacity="0.7"/><path transform="translate(120 250)" d="M-3.5 0L3.5 0M-1.75 -3.03L1.75 3.03M1.75 -3.03L-1.75 3.03" fill="none" stroke-width="1" opacity="0.6"/></g></svg>
